<svg width="17" height="18" viewBox="0 0 17 18" fill="none" xmlns="http://www.w3.org/2000/svg">
<path fill-rule="evenodd" clip-rule="evenodd" d="M4.04065 3.32675e-05C4.08069 4.99342e-05 4.12133 6.65467e-05 4.16257 6.65467e-05H12.0876C12.1288 6.65467e-05 12.1694 4.99342e-05 12.2095 3.32675e-05C13.0567 -0.000333399 13.6399 -0.000591787 14.131 0.170292C15.0585 0.493008 15.7786 1.23938 16.0872 2.17966C16.2506 2.67726 16.2504 3.26878 16.2501 4.14713C16.2501 4.18643 16.2501 4.22632 16.2501 4.26678V15.9369C16.2501 17.1579 14.8109 17.8848 13.8631 17.0175C13.7968 16.9569 13.7033 16.9569 13.6371 17.0175L13.2345 17.3859C12.461 18.0937 11.2891 18.0937 10.5156 17.3859C10.2198 17.1152 9.7803 17.1152 9.48447 17.3859C8.71097 18.0937 7.53914 18.0937 6.76564 17.3859C6.4698 17.1152 6.03031 17.1152 5.73449 17.3859C4.96099 18.0937 3.78912 18.0937 3.01563 17.3859L2.61305 17.0175C2.54682 16.9569 2.45329 16.9569 2.38707 17.0175C1.43921 17.8848 6.06779e-05 17.1579 6.06779e-05 15.9369V4.26678C6.06779e-05 4.22632 4.39659e-05 4.18643 2.72993e-05 4.14713C-0.000289367 3.26879 -0.000506019 2.67726 0.162877 2.17966C0.471594 1.23938 1.19169 0.493008 2.11915 0.170292C2.61025 -0.000591787 3.19336 -0.000333399 4.04065 3.32675e-05ZM4.16257 1.25007C3.145 1.25007 2.7945 1.25881 2.52994 1.35086C1.98046 1.54206 1.54099 1.9894 1.3505 2.56958C1.25793 2.85152 1.25006 3.2233 1.25006 4.26678V15.9369C1.25006 16.0361 1.29999 16.0968 1.36264 16.1258C1.39528 16.1408 1.4272 16.1448 1.45379 16.1412C1.47724 16.138 1.50759 16.1279 1.54321 16.0953C2.08711 15.5976 2.91301 15.5976 3.4569 16.0953L3.85949 16.4638C4.15531 16.7344 4.59481 16.7344 4.89063 16.4638C5.66412 15.7559 6.83597 15.7559 7.60947 16.4638C7.9053 16.7344 8.3448 16.7344 8.64064 16.4638C9.41414 15.7559 10.586 15.7559 11.3595 16.4638C11.6553 16.7344 12.0948 16.7344 12.3906 16.4638L12.7932 16.0953C13.3371 15.5976 14.163 15.5976 14.7069 16.0953C14.7426 16.1279 14.7729 16.138 14.7963 16.1412C14.8229 16.1448 14.8548 16.1408 14.8875 16.1258C14.9501 16.0968 15.0001 16.0362 15.0001 15.9369V4.26678C15.0001 3.22331 14.9922 2.85152 14.8996 2.56958C14.7091 1.9894 14.2696 1.54206 13.7201 1.35086C13.4556 1.25881 13.1051 1.25007 12.0876 1.25007H4.16257ZM3.33339 5.2084C3.33339 4.86323 3.61321 4.5834 3.95839 4.5834H4.37506C4.72024 4.5834 5.00006 4.86323 5.00006 5.2084C5.00006 5.55358 4.72024 5.8334 4.37506 5.8334H3.95839C3.61321 5.8334 3.33339 5.55358 3.33339 5.2084ZM6.25006 5.2084C6.25006 4.86323 6.52989 4.5834 6.87505 4.5834H12.2917C12.6369 4.5834 12.9167 4.86323 12.9167 5.2084C12.9167 5.55358 12.6369 5.8334 12.2917 5.8334H6.87505C6.52989 5.8334 6.25006 5.55358 6.25006 5.2084ZM3.33339 8.12508C3.33339 7.77992 3.61321 7.50008 3.95839 7.50008H4.37506C4.72024 7.50008 5.00006 7.77992 5.00006 8.12508C5.00006 8.47025 4.72024 8.75008 4.37506 8.75008H3.95839C3.61321 8.75008 3.33339 8.47025 3.33339 8.12508ZM6.25006 8.12508C6.25006 7.77992 6.52989 7.50008 6.87505 7.50008H12.2917C12.6369 7.50008 12.9167 7.77992 12.9167 8.12508C12.9167 8.47025 12.6369 8.75008 12.2917 8.75008H6.87505C6.52989 8.75008 6.25006 8.47025 6.25006 8.12508ZM3.33339 11.0418C3.33339 10.6966 3.61321 10.4168 3.95839 10.4168H4.37506C4.72024 10.4168 5.00006 10.6966 5.00006 11.0418C5.00006 11.3869 4.72024 11.6668 4.37506 11.6668H3.95839C3.61321 11.6668 3.33339 11.3869 3.33339 11.0418ZM6.25006 11.0418C6.25006 10.6966 6.52989 10.4168 6.87505 10.4168H12.2917C12.6369 10.4168 12.9167 10.6966 12.9167 11.0418C12.9167 11.3869 12.6369 11.6668 12.2917 11.6668H6.87505C6.52989 11.6668 6.25006 11.3869 6.25006 11.0418Z" fill="currentColor"/>
</svg>
